<?xml version="1.0" encoding="UTF-8"?>
<svg xmlns="http://www.w3.org/2000/svg" xmlns:xlink="http://www.w3.org/1999/xlink" height="75px" viewBox="0 0 160 40" width="300px">
  <mask id="a" fill="#fff">
    <path d="m.11866667.41493333h9.98533333v10.25173337h-9.98533333z" fill="#fff" fill-rule="evenodd"></path>
  </mask>
  <mask id="b" fill="#fff">
    <path d="m.6272.00026667h46.708v39.99973333h-46.708z" fill="#fff" fill-rule="evenodd"></path>
  </mask>
  <g fill="none" fill-rule="evenodd">
    <g fill="#1d2633">
      <path d="m61.1817333 8.83v-2.58266667c0-1.78666666.5493334-3.11733333 1.6466667-3.98933333 1.0986667-.872 2.9173333-1.308 5.4586667-1.308 2.0893333 0 3.8.324 5.136.968l-.388 4.232h-.6786667c-.4306667-1.228-.7746667-2.11466667-1.0333333-2.664-.2586667-.54933333-.5973334-.98-1.0173334-1.29333333-.42-.31066667-.996-.468-1.728-.468-.6466666 0-1.12.13066666-1.4213333.38933333s-.452.656-.452 1.19466667c0 .472.0426667.89866666.1293333 1.276.0853334.37733333.2053334.812.3546667 1.30666666.108.324.2.652.2746667.98533334.076.33466666.1133333.67466666.1133333 1.01733333v.936h3.9093333v.84h-3.9093333v13.276c0 .2373333.0493333.3986667.1453333.484.0973334.0866667.3066667.1613333.6293334.2266667l1.1946666.2906666v.58h-10.2693333v-.58l1.1293333-.2586666c.324-.0653334.5333334-.14.6306667-.2253334.096-.0866666.1453333-.2493333.1453333-.4866666v-13.3066667h-2.1v-.84z"></path>
      <path d="m79.2942667 21.1041333c.1826666 1.0333334.5106666 1.788.9853333 2.2613334.4733333.4733333 1.172.7106666 2.0986667.7106666.9266666 0 1.6253333-.2373333 2.1-.7106666.4733333-.4733334.8013333-1.228.984-2.2613334.184-1.0333333.276-2.508.276-4.424 0-1.9173333-.092-3.3906666-.276-4.4253333-.1826667-1.0333333-.5106667-1.788-.984-2.26133333-.4746667-.47333334-1.1733334-.70933334-2.1-.70933334-.9266667 0-1.6253334.236-2.0986667.70933334-.4746667.47333333-.8026667 1.22800003-.9853333 2.26133333-.184 1.0346667-.2746667 2.508-.2746667 4.4253333 0 1.916.0906667 3.3906667.2746667 4.424m10.5613333 1.7773334c-1.7333333 1.3546666-4.2266667 2.0346666-7.4773333 2.0346666-3.2506667 0-5.744-.68-7.476-2.0346666-1.7346667-1.3586667-2.6013334-3.424-2.6013334-6.2013334 0-2.7786666.8666667-4.8466666 2.6013334-6.2013333 1.732-1.35733333 4.2253333-2.036 7.476-2.036 3.2506666 0 5.744.67866667 7.4773333 2.036 1.7333333 1.3546667 2.6 3.4226667 2.6 6.2013333 0 2.7773334-.8666667 4.8426667-2.6 6.2013334"></path>
      <path d="m104.112 23.6888c.484-.3026667.726667-.8293333.726667-1.5826667 0-.5173333-.129334-.9373333-.388-1.26-.257334-.324-.666667-.6133333-1.226667-.872-.56-.2573333-1.453333-.6146666-2.68-1.0653333-2.0893333-.7546667-3.5746667-1.5346667-4.4573333-2.3426667-.884-.8066666-1.324-1.9213333-1.324-3.3426666 0-1.616.6013333-2.8146667 1.808-3.60133337 1.2053333-.78533333 3.036-1.17866666 5.4906663-1.17866666 1.248 0 2.476.124 3.682667.372 1.204.24666666 2.141333.532 2.809333.85466666l-.386666 3.87599997h-.550667c-.58-1.4413333-1.281333-2.5346666-2.098667-3.2773333-.818666-.74266667-2.002666-1.11466667-3.553333-1.11466667-.990667 0-1.754667.13466667-2.2933333.404-.5386667.26933334-.808.75999997-.808 1.46933337 0 .496.1253333.8933333.372 1.1946666.248.3013334.636.58 1.1626663.8386667.528.2586667 1.406667.636 2.633334 1.132 1.765333.7106667 3.1 1.3253333 4.005333 1.84.904.5173333 1.570667 1.1106667 2.001333 1.776.430667.668.646667 1.5093333.646667 2.52 0 1.616-.62 2.7826667-1.857333 3.504-1.238667.7226667-3.096 1.0826667-5.572 1.0826667-1.313334 0-2.6853337-.124-4.1173337-.372-1.432-.2466667-2.504-.5333334-3.2146666-.8546667l.4533333-4.3933333h.548c.388 1.7013333 1.0773333 2.9333333 2.068 3.6973333.9893333.7653333 2.281333 1.148 3.874667 1.148 1.012 0 1.761333-.1506667 2.245333-.452"></path>
      <path d="m110.951867 9.67053333v-.84c.666666 0 1.164-.052 1.485333-.16133333.324-.108.646667-.30133333.969333-.58133333l5.749334-5.168h.290666v5.91066666h4.166667v.84h-4.166667v10.85199997c0 1.0333334.124 1.76.372 2.1813334.246667.4186666.672.6293333 1.276.6293333.472 0 .893334-.0986667 1.258667-.292.366667-.1933333.764-.5266667 1.196-1.0013333l.516.6146666c-1.356 1.5066667-3.358667 2.2613334-6.006667 2.2613334-1.788 0-3.069333-.3773334-3.844-1.132-.776-.752-1.162666-1.9253334-1.162666-3.52v-10.59333337z"></path>
      <path d="m132.339867 10.7044c-.430667.9906667-.657334 2.5613333-.678667 4.716h5.426667v-2.4226667c0-1.3133333-.157334-2.272-.469334-2.876-.310666-.6013333-.930666-.90266663-1.857333-.90266663-1.182667 0-1.990667.496-2.421333 1.48533333m.468 11.0146667c.742666 1.248 2.137333 1.872 4.182666 1.872 1.012 0 1.910667-.1493334 2.697334-.452.785333-.3013334 1.598666-.732 2.438666-1.292l.42.6146666c-2.002666 1.6346667-4.650666 2.4546667-7.945333 2.4546667-2.972 0-5.313333-.7173333-7.025333-2.1493333-1.712-1.4306667-2.568-3.5253334-2.568-6.2813334 0-2.6053333.872-4.596 2.616-5.9746666 1.744-1.3786667 4.188-2.06800003 7.332-2.06800003 1.788 0 3.294666.28 4.521333.84133333 1.228.55866667 2.137333 1.3066667 2.729333 2.244.593334.936.888 1.9746667.888 3.116 0 .5826667-.053333 1.12-.16 1.616h-11.273333c.021333 2.3893333.404 4.208 1.146667 5.4586667"></path>
      <path d="m158.321067 8.54093333c.710666 0 1.270666.08533334 1.678666.25866667l-.484 5.0373333h-.225333l-6.622667-1.4533333v10.5933333c0 .2373334.049334.404.146667.5.096.0973334.294667.1786667.596.244l1.1.2266667v.58h-10.206667v-.58l1.130667-.2586667c.322667-.0653333.532-.14.629333-.2266666.097334-.0853334.145334-.248.145334-.4853334v-12.208c0-.2373333-.048-.3973333-.145334-.484-.097333-.0853333-.306666-.1626666-.629333-.2253333l-1.130667-.25866667v-.58266666l7.750667-.968h.549333v3.16400003c1.873334-1.91600003 3.778667-2.87333337 5.717334-2.87333337"></path>
      <g opacity=".5" transform="translate(60 29.333333)">
        <path d="m.16733333 5.54093333c0-3.04533333 2.25866667-5.12533333 5.08266667-5.12533333 1.94533333 0 3.164.93466667 3.93733333 2.09466667l-1.264.66933333c-.52-.832-1.5-1.44266667-2.67333333-1.44266667-2.00666667 0-3.552 1.576-3.552 3.804 0 2.21333334 1.54533333 3.804 3.552 3.804 1.17333333 0 2.15333333-.60933333 2.67333333-1.44133333l1.264.668c-.788 1.16-1.992 2.0946667-3.93733333 2.0946667-2.824 0-5.08266667-2.0786667-5.08266667-5.12533337"></path>
        <path d="m5.112 1.7376c-2.12533333 0-3.46266667 1.62-3.46266667 3.804 0 2.16933333 1.33733334 3.80266667 3.46266667 3.80266667 2.09466667 0 3.46266667-1.63333334 3.46266667-3.80266667 0-2.184-1.368-3.804-3.46266667-3.804m0-1.32266667c2.95733333 0 4.992 2.18533334 4.992 5.12666667 0 2.94266667-2.03466667 5.1253333-4.992 5.1253333s-4.99333333-2.18266663-4.99333333-5.1253333c0-2.94133333 2.036-5.12666667 4.99333333-5.12666667" mask="url(#a)" transform="translate(10.666667)"></path>
        <path d="m31.8437333 2.61386667-3.2093333 7.87466663h-.624l-3.2093333-7.87466663v7.87466663h-1.4853334v-9.90799997h2.124l2.8826667 7.11466667 2.8826667-7.11466667h2.124v9.90799997h-1.4853334z"></path>
        <path d="m44.8665333 2.61386667-3.208 7.87466663h-.6253333l-3.2093333-7.87466663v7.87466663h-1.4853334v-9.90799997h2.124l2.8826667 7.11466667 2.8826667-7.11466667h2.124v9.90799997h-1.4853334z"></path>
        <path d="m49.3594667.58h6.656v1.30666667h-5.1706667v2.896h5.068v1.30933333h-5.068v3.09066667h5.1706667v1.30666663h-6.656z"></path>
        <path d="m62.6126667 1.88666667h-2.4973334v3.476h2.4973334c1.0693333 0 1.8426666-.69866667 1.8426666-1.736 0-1.04133334-.7733333-1.74-1.8426666-1.74zm-.6386667 4.78266666h-1.8586667v3.81999997h-1.4853333v-9.9093333h4.176c1.8866667 0 3.1786667 1.21733333 3.1786667 3.04666667 0 1.78-1.204 2.732-2.4653334 2.896l2.54 3.96666663h-1.724z"></path>
        <path d="m67.9570667 5.54093333c0-3.04533333 2.2586666-5.12533333 5.0826666-5.12533333 1.9453334 0 3.164.93466667 3.9373334 2.09466667l-1.264.66933333c-.52-.832-1.5-1.44266667-2.6733334-1.44266667-2.0066666 0-3.552 1.576-3.552 3.804 0 2.21333334 1.5453334 3.804 3.552 3.804 1.1733334 0 2.1533334-.60933333 2.6733334-1.44133333l1.264.668c-.788 1.16-1.992 2.0946667-3.9373334 2.0946667-2.824 0-5.0826666-2.0786667-5.0826666-5.12533337"></path>
        <path d="m79.1986667.58h6.656v1.30666667h-5.1706667v2.896h5.068v1.30933333h-5.068v3.09066667h5.1706667v1.30666663h-6.656z"></path>
      </g>
    </g>
    <path d="m40.0352 24.5122667h7.3l-17.8413333-24.51200003-28.8666667 40.00000003h7.256l14.744-20.3133334 3.5453333 4.8253334 7.32.028-7.2426666-9.8986667 3.2826666-4.5746667z" fill="#d8af7c" mask="url(#b)" transform="translate(5.333333)"></path>
    <path d="m0 29.9133333h7.26133333l21.43866667-29.9133333h-7.2613333z" fill="#d8af7c" opacity=".5"></path>
  </g>
</svg>
